<?xml version="1.0" standalone="no"?>
<!DOCTYPE svg PUBLIC "-//W3C//DTD SVG 20010904//EN"
 "http://www.w3.org/TR/2001/REC-SVG-20010904/DTD/svg10.dtd">
<svg version="1.0" xmlns="http://www.w3.org/2000/svg"
 width="2560.000000pt" height="2160.000000pt" viewBox="0 0 2560.000000 2160.000000"
 preserveAspectRatio="xMidYMid meet">

<g transform="translate(0.000000,2160.000000) scale(0.100000,-0.100000)"
fill="#000000" stroke="none">
<path d="M11940 16790 c0 -5 -11 -10 -25 -10 -17 0 -43 -17 -80 -55 -38 -37
-55 -63 -55 -80 0 -14 -4 -25 -10 -25 -5 0 -10 -18 -10 -40 0 -22 5 -40 10
-40 6 0 10 -17 10 -38 0 -26 6 -42 20 -52 11 -8 20 -20 20 -28 0 -18 25 -42
44 -42 9 0 16 -4 16 -10 0 -5 9 -10 20 -10 11 0 20 -4 20 -10 0 -15 157 -13
162 2 5 13 98 -75 98 -92 0 -6 23 -33 50 -60 28 -27 50 -54 50 -60 0 -6 18
-29 40 -50 38 -36 52 -70 30 -70 -5 0 -10 -9 -10 -20 0 -11 -4 -20 -10 -20 -5
0 -10 -13 -10 -30 0 -16 -4 -30 -10 -30 -5 0 -10 -18 -10 -40 0 -22 5 -40 10
-40 6 0 10 -9 10 -20 0 -11 5 -20 10 -20 6 0 10 -9 10 -20 0 -11 5 -20 10 -20
6 0 10 -13 10 -30 0 -16 -4 -30 -10 -30 -5 0 -10 -8 -10 -18 0 -10 -9 -24 -20
-32 -11 -8 -20 -21 -20 -30 0 -9 -9 -22 -20 -30 -11 -8 -20 -21 -20 -30 0 -9
-9 -22 -20 -30 -11 -8 -20 -21 -20 -30 0 -9 -9 -22 -20 -30 -11 -8 -20 -22
-20 -32 0 -10 -4 -18 -10 -18 -5 0 -10 -8 -10 -18 0 -10 -9 -24 -20 -32 -11
-8 -20 -21 -20 -30 0 -9 -9 -22 -20 -30 -11 -8 -20 -20 -20 -28 0 -28 -28 -42
-84 -42 -31 0 -56 -4 -56 -10 0 -5 -13 -10 -28 -10 -16 0 -34 -8 -42 -20 -8
-11 -22 -20 -32 -20 -11 0 -18 -7 -18 -18 0 -10 -9 -24 -20 -32 -12 -8 -20
-26 -20 -42 0 -15 -4 -28 -10 -28 -6 0 -10 -27 -10 -60 0 -33 4 -60 10 -60 6
0 10 -9 10 -20 0 -11 5 -20 10 -20 6 0 10 -7 10 -15 0 -20 65 -85 85 -85 8 0
15 -4 15 -10 0 -5 13 -10 29 -10 16 0 32 -6 35 -12 5 -10 7 -10 12 0 3 7 25
12 55 12 27 0 49 5 49 10 0 6 7 10 16 10 8 0 34 19 56 43 25 25 43 37 45 30 3
-7 18 -13 34 -13 16 0 29 -4 29 -10 0 -5 14 -10 30 -10 17 0 30 -4 30 -10 0
-5 14 -10 30 -10 17 0 30 -4 30 -10 0 -5 14 -10 30 -10 17 0 30 -4 30 -10 0
-5 14 -10 30 -10 17 0 30 -4 30 -10 0 -5 14 -10 30 -10 17 0 30 -4 30 -10 0
-5 7 -10 16 -10 30 0 44 -27 44 -84 0 -31 5 -56 10 -56 6 0 10 -7 10 -15 0
-20 65 -85 85 -85 8 0 15 -4 15 -10 0 -6 40 -10 100 -10 60 0 100 4 100 10 0
6 7 10 15 10 20 0 85 65 85 85 0 8 5 15 10 15 6 0 10 9 10 20 0 11 5 20 10 20
6 0 10 27 10 60 0 33 -4 60 -10 60 -5 0 -10 9 -10 20 0 11 -4 20 -10 20 -5 0
-10 7 -10 15 0 20 -65 85 -85 85 -8 0 -15 5 -15 10 0 6 -18 10 -39 10 -22 0
-42 6 -45 13 -5 10 -7 10 -12 0 -3 -8 -25 -13 -55 -13 -27 0 -49 -4 -49 -10 0
-5 -9 -10 -20 -10 -11 0 -20 -4 -20 -10 0 -5 -18 -10 -40 -10 -22 0 -40 5 -40
10 0 6 -18 10 -40 10 -22 0 -40 5 -40 10 0 6 -13 10 -30 10 -16 0 -30 5 -30
10 0 6 -18 10 -40 10 -22 0 -40 5 -40 10 0 6 -18 10 -40 10 -22 0 -40 5 -40
10 0 6 -13 10 -30 10 -16 0 -30 5 -30 10 0 6 -9 10 -20 10 -17 0 -20 7 -20 40
0 22 -4 40 -10 40 -5 0 -10 9 -10 20 0 11 -4 20 -10 20 -5 0 -10 8 -10 18 0
10 -9 24 -20 32 -11 8 -20 26 -20 40 0 14 9 32 20 40 11 8 20 21 20 28 0 8 14
27 30 42 17 15 30 34 30 42 0 7 9 20 20 28 11 8 20 21 20 30 0 9 9 22 20 30
11 8 20 21 20 28 0 8 14 27 30 42 17 15 30 34 30 42 0 7 9 20 20 28 11 8 20
20 20 28 0 32 28 42 114 42 51 0 86 4 86 10 0 6 7 10 15 10 20 0 105 85 105
105 0 8 5 15 10 15 6 0 10 14 10 30 0 17 5 30 10 30 6 0 10 14 10 30 0 17 -4
30 -10 30 -5 0 -10 16 -10 35 0 30 -9 45 -55 90 -30 30 -61 55 -70 55 -8 0
-15 5 -15 10 0 6 -28 10 -65 10 -57 0 -69 3 -90 25 -14 13 -25 29 -25 35 0 6
-54 64 -120 130 -90 90 -120 126 -120 145 0 14 5 25 10 25 6 0 10 18 10 40 0
22 5 40 10 40 6 0 10 9 10 20 0 11 -4 20 -10 20 -5 0 -10 14 -10 30 0 17 -4
30 -10 30 -5 0 -10 7 -10 15 0 26 -86 105 -115 105 -14 0 -25 5 -25 10 0 6
-27 10 -60 10 -33 0 -60 -4 -60 -10z m120 -100 c0 -5 9 -10 20 -10 13 0 20 -7
20 -20 0 -11 5 -20 10 -20 6 0 10 -9 10 -20 0 -11 5 -20 10 -20 6 0 10 -17 10
-38 0 -26 -6 -42 -20 -52 -11 -8 -20 -22 -20 -32 0 -11 -7 -18 -20 -18 -11 0
-20 -4 -20 -10 0 -6 -27 -10 -60 -10 -33 0 -60 4 -60 10 0 6 -7 10 -16 10 -8
0 -22 6 -30 14 -8 8 -14 22 -14 30 0 9 -4 16 -10 16 -5 0 -10 23 -10 50 0 28
5 50 10 50 6 0 10 7 10 16 0 8 6 22 14 30 8 8 22 14 30 14 9 0 16 5 16 10 0 6
27 10 60 10 33 0 60 -4 60 -10z m540 -680 c0 -5 7 -10 16 -10 23 0 44 -25 44
-54 0 -14 5 -26 10 -26 6 0 10 -13 10 -30 0 -16 -4 -30 -10 -30 -5 0 -10 -9
-10 -20 0 -11 -4 -20 -10 -20 -5 0 -10 -9 -10 -20 0 -13 -7 -20 -20 -20 -11 0
-20 -4 -20 -10 0 -6 -27 -10 -60 -10 -33 0 -60 4 -60 10 0 6 -9 10 -20 10 -13
0 -20 7 -20 20 0 11 -4 20 -10 20 -5 0 -10 9 -10 20 0 11 -4 20 -10 20 -5 0
-10 18 -10 40 0 22 5 40 10 40 6 0 10 7 10 16 0 8 6 22 14 30 8 8 22 14 30 14
9 0 16 5 16 10 0 6 27 10 60 10 33 0 60 -4 60 -10z m-560 -880 c0 -5 7 -10 15
-10 24 0 65 -46 65 -74 0 -13 6 -27 13 -30 10 -5 10 -7 0 -12 -7 -3 -13 -19
-13 -35 0 -16 -4 -29 -10 -29 -5 0 -10 -9 -10 -20 0 -13 -7 -20 -20 -20 -11 0
-20 -4 -20 -10 0 -5 -9 -10 -20 -10 -11 0 -20 -4 -20 -10 0 -5 -13 -10 -30
-10 -16 0 -30 5 -30 10 0 6 -7 10 -15 10 -9 0 -31 16 -50 35 -32 31 -35 40
-35 90 0 30 5 55 10 55 6 0 10 7 10 16 0 8 6 22 14 30 8 8 22 14 30 14 9 0 16
5 16 10 0 6 23 10 50 10 28 0 50 -4 50 -10z m840 -300 c0 -5 7 -10 15 -10 9 0
27 -11 40 -25 14 -13 25 -31 25 -40 0 -8 5 -15 10 -15 6 0 10 -18 10 -40 0
-22 -4 -40 -10 -40 -5 0 -10 -7 -10 -15 0 -9 -11 -27 -25 -40 -13 -14 -31 -25
-40 -25 -8 0 -15 -4 -15 -10 0 -5 -18 -10 -40 -10 -22 0 -40 5 -40 10 0 6 -7
10 -15 10 -9 0 -27 11 -40 25 -14 13 -25 31 -25 40 0 8 -4 15 -10 15 -5 0 -10
18 -10 40 0 22 5 40 10 40 6 0 10 7 10 15 0 25 46 65 75 65 14 0 25 5 25 10 0
6 14 10 30 10 17 0 30 -4 30 -10z"/>
<path d="M13820 16570 c0 -5 -13 -10 -30 -10 -16 0 -30 -4 -30 -10 0 -5 -7
-10 -15 -10 -9 0 -27 -11 -40 -25 -14 -13 -25 -31 -25 -40 0 -8 -4 -15 -10
-15 -5 0 -10 -9 -10 -20 0 -11 -4 -20 -10 -20 -6 0 -10 -33 -10 -80 0 -47 4
-80 10 -80 6 0 10 -7 10 -15 0 -9 20 -36 45 -60 24 -25 51 -45 60 -45 8 0 15
-4 15 -10 0 -5 23 -10 50 -10 43 0 50 -3 50 -20 0 -11 5 -20 10 -20 6 0 10
-13 10 -30 0 -16 5 -30 10 -30 6 0 10 -13 10 -30 0 -16 5 -30 10 -30 6 0 10
-13 10 -30 0 -16 5 -30 10 -30 6 0 10 -18 10 -40 0 -22 5 -40 10 -40 6 0 10
-13 10 -30 0 -16 5 -30 10 -30 6 0 10 -13 10 -30 0 -20 -5 -30 -15 -30 -20 0
-65 -45 -65 -65 0 -8 -4 -15 -10 -15 -5 0 -10 -9 -10 -20 0 -11 -4 -20 -10
-20 -6 0 -10 -37 -10 -90 0 -75 -3 -90 -16 -90 -8 0 -38 -24 -66 -52 -30 -31
-53 -48 -56 -40 -2 6 -12 12 -23 12 -10 0 -19 5 -19 10 0 6 -37 10 -90 10 -53
0 -90 -4 -90 -10 0 -5 -7 -10 -15 -10 -20 0 -85 -65 -85 -85 0 -8 -4 -15 -10
-15 -5 0 -10 -9 -10 -20 0 -11 -4 -20 -10 -20 -5 0 -10 -9 -10 -20 0 -11 -4
-20 -10 -20 -14 0 -12 -37 3 -43 9 -4 8 -8 -3 -16 -12 -8 -11 -13 8 -29 12
-11 22 -25 22 -31 0 -6 25 -36 55 -66 37 -38 63 -55 80 -55 14 0 25 -4 25 -10
0 -5 23 -10 50 -10 28 0 50 5 50 10 0 6 14 10 30 10 17 0 30 5 30 10 0 6 7 10
16 10 18 0 44 24 44 40 0 7 14 25 30 40 29 27 30 31 30 114 0 51 -4 86 -10 86
-15 0 -12 49 4 66 8 8 21 14 28 14 8 0 20 9 28 20 8 11 22 20 31 20 10 0 20 6
23 13 5 10 7 10 12 0 3 -7 14 -13 25 -13 10 0 19 -4 19 -10 0 -5 9 -10 20 -10
11 0 20 -4 20 -10 0 -6 30 -10 70 -10 40 0 70 4 70 10 0 6 9 10 20 10 11 0 20
5 20 10 0 6 7 10 15 10 20 0 65 45 65 65 0 8 5 15 10 15 6 0 10 9 10 20 0 11
5 20 10 20 6 0 10 14 10 30 0 17 5 30 10 30 6 0 10 9 10 20 0 11 -4 20 -10 20
-5 0 -10 14 -10 30 0 17 -4 30 -10 30 -5 0 -10 7 -10 15 0 20 -85 105 -104
105 -8 0 -16 -6 -18 -12 -6 -17 -38 14 -38 36 0 9 -4 16 -10 16 -5 0 -10 14
-10 30 0 17 -4 30 -10 30 -5 0 -10 9 -10 20 0 11 -4 20 -10 20 -5 0 -10 14
-10 30 0 17 -4 30 -10 30 -5 0 -10 14 -10 30 0 17 -4 30 -10 30 -5 0 -10 9
-10 20 0 11 -4 20 -10 20 -5 0 -10 14 -10 30 0 17 -4 30 -10 30 -5 0 -10 22
-10 48 0 36 5 51 20 62 11 8 20 22 20 32 0 10 5 18 10 18 6 0 10 9 10 20 0 11
5 20 10 20 6 0 10 30 10 70 0 40 -4 70 -10 70 -5 0 -10 8 -10 18 0 10 -9 24
-20 32 -11 8 -20 22 -20 32 0 11 -7 18 -18 18 -10 0 -24 9 -32 20 -8 12 -26
20 -42 20 -15 0 -28 5 -28 10 0 6 -22 10 -50 10 -27 0 -50 -4 -50 -10z m100
-100 c0 -5 7 -10 16 -10 8 0 22 -6 30 -14 8 -8 14 -22 14 -30 0 -9 5 -16 10
-16 6 0 10 -22 10 -50 0 -27 -4 -50 -10 -50 -5 0 -10 -7 -10 -15 0 -25 -46
-65 -75 -65 -14 0 -25 -4 -25 -10 0 -5 -9 -10 -20 -10 -11 0 -20 5 -20 10 0 6
-7 10 -15 10 -9 0 -31 16 -50 35 -32 32 -35 39 -35 95 0 51 4 65 25 85 13 14
31 25 40 25 8 0 15 5 15 10 0 6 23 10 50 10 28 0 50 -4 50 -10z m285 -865 c32
-32 35 -39 35 -95 0 -56 -3 -63 -35 -95 -31 -32 -40 -35 -90 -35 -30 0 -55 5
-55 10 0 6 -7 10 -15 10 -9 0 -27 11 -40 25 -21 20 -25 34 -25 85 0 55 3 64
33 95 30 31 37 34 95 34 59 1 65 -1 97 -34z m-565 -355 c0 -5 9 -10 20 -10 11
0 20 -4 20 -10 0 -5 9 -10 20 -10 13 0 20 -7 20 -20 0 -11 5 -20 10 -20 6 0
10 -13 10 -29 0 -16 6 -32 13 -35 10 -5 10 -7 0 -12 -7 -3 -13 -17 -13 -30 0
-28 -41 -74 -65 -74 -8 0 -15 -4 -15 -10 0 -5 -22 -10 -50 -10 -27 0 -50 5
-50 10 0 6 -7 10 -16 10 -8 0 -22 6 -30 14 -8 8 -14 22 -14 30 0 9 -4 16 -10
16 -5 0 -10 23 -10 50 0 28 5 50 10 50 6 0 10 7 10 15 0 25 46 65 75 65 14 0
25 5 25 10 0 6 9 10 20 10 11 0 20 -4 20 -10z"/>
<path d="M11440 14350 c0 -5 -13 -10 -30 -10 -16 0 -30 -4 -30 -10 0 -5 -7
-10 -15 -10 -9 0 -27 -11 -40 -25 -14 -13 -25 -31 -25 -40 0 -8 -4 -15 -10
-15 -5 0 -10 -9 -10 -20 0 -11 -4 -20 -10 -20 -6 0 -10 -33 -10 -80 0 -47 4
-80 10 -80 6 0 10 -7 10 -15 0 -9 20 -36 45 -60 24 -25 51 -45 60 -45 8 0 15
-4 15 -10 0 -6 37 -10 90 -10 53 0 90 4 90 10 0 6 7 10 16 10 9 0 30 15 47 33
19 20 32 27 34 20 3 -7 18 -13 34 -13 16 0 29 -4 29 -10 0 -5 9 -10 20 -10 11
0 20 -4 20 -10 0 -5 9 -10 20 -10 11 0 20 -4 20 -10 0 -5 9 -10 20 -10 11 0
20 -4 20 -10 0 -5 9 -10 20 -10 11 0 20 -4 20 -10 0 -5 14 -10 30 -10 17 0 30
-4 30 -10 0 -5 9 -10 20 -10 11 0 20 -4 20 -10 0 -5 9 -10 20 -10 18 0 20 -7
20 -70 0 -40 4 -70 10 -70 6 0 10 -11 10 -25 0 -29 79 -115 105 -115 11 0 15
-11 15 -40 0 -22 -4 -40 -10 -40 -5 0 -10 -22 -10 -50 0 -27 -4 -50 -10 -50
-5 0 -10 -16 -10 -36 0 -48 -19 -64 -74 -64 -25 0 -46 -4 -46 -10 0 -5 -7 -10
-15 -10 -26 0 -105 -86 -105 -115 0 -14 -4 -25 -10 -25 -6 0 -10 -30 -10 -70
0 -40 4 -70 10 -70 6 0 10 -9 10 -20 0 -11 5 -20 10 -20 6 0 10 -7 10 -15 0
-20 45 -65 65 -65 8 0 15 -4 15 -10 0 -5 9 -10 20 -10 11 0 20 -4 20 -10 0 -6
32 -10 75 -10 67 0 79 -3 100 -25 14 -13 25 -30 25 -37 0 -8 9 -20 20 -28 11
-8 20 -21 20 -30 0 -9 9 -22 20 -30 11 -8 20 -21 20 -30 0 -9 9 -22 20 -30 11
-8 20 -22 20 -32 0 -10 5 -18 10 -18 6 0 10 -9 10 -20 0 -11 5 -20 10 -20 6 0
10 -17 10 -38 0 -26 -6 -42 -20 -52 -12 -8 -20 -26 -20 -42 0 -15 -4 -28 -10
-28 -5 0 -10 -13 -10 -30 0 -16 5 -30 10 -30 6 0 10 -18 10 -40 0 -22 5 -40
10 -40 6 0 10 -7 10 -15 0 -19 44 -65 62 -65 8 0 20 -9 28 -20 8 -11 22 -20
32 -20 10 0 18 -4 18 -10 0 -5 23 -10 50 -10 28 0 50 5 50 10 0 6 14 10 30 10
17 0 30 5 30 10 0 6 7 10 15 10 19 0 85 64 85 82 0 8 9 20 20 28 16 12 20 26
20 72 0 32 -4 58 -10 58 -5 0 -10 14 -10 30 0 17 -4 30 -10 30 -5 0 -10 7 -10
15 0 26 -66 85 -95 85 -14 0 -25 5 -25 10 0 6 -18 10 -40 10 -22 0 -40 5 -40
10 0 6 -9 10 -20 10 -12 0 -20 7 -20 16 0 9 -13 29 -30 44 -16 15 -30 33 -30
40 0 7 -13 25 -30 40 -16 15 -30 33 -30 40 0 7 -13 25 -30 40 -16 15 -30 33
-30 40 0 7 -13 25 -30 40 -29 27 -42 80 -20 80 6 0 10 9 10 20 0 11 5 20 10
20 6 0 10 30 10 70 0 40 -4 70 -10 70 -5 0 -10 9 -10 20 0 11 -4 20 -10 20 -5
0 -10 7 -10 16 0 8 -18 33 -40 54 -32 31 -40 46 -40 74 0 20 5 36 10 36 6 0
10 14 10 30 0 17 5 30 10 30 6 0 10 14 10 30 0 17 5 30 10 30 6 0 10 12 10 26
0 29 21 54 44 54 9 0 16 5 16 10 0 6 9 10 20 10 11 0 20 5 20 10 0 6 7 10 15
10 9 0 27 11 40 25 14 13 25 31 25 40 0 8 5 15 10 15 6 0 10 9 10 20 0 11 5
20 10 20 6 0 10 30 10 70 0 40 -4 70 -10 70 -5 0 -10 9 -10 20 0 11 -4 20 -10
20 -5 0 -10 7 -10 15 0 20 -45 65 -65 65 -8 0 -15 5 -15 10 0 6 -9 10 -20 10
-11 0 -20 5 -20 10 0 6 -30 10 -70 10 -40 0 -70 -4 -70 -10 0 -5 -13 -10 -30
-10 -16 0 -30 -4 -30 -10 0 -5 -9 -10 -20 -10 -11 0 -20 5 -20 10 0 6 -13 10
-30 10 -16 0 -30 5 -30 10 0 6 -9 10 -20 10 -11 0 -20 5 -20 10 0 6 -13 10
-30 10 -16 0 -30 5 -30 10 0 6 -13 10 -30 10 -16 0 -30 5 -30 10 0 6 -9 10
-20 10 -11 0 -20 5 -20 10 0 6 -13 10 -30 10 -16 0 -30 5 -30 10 0 6 -7 10
-16 10 -26 0 -44 26 -44 64 0 20 -4 36 -10 36 -5 0 -10 11 -10 25 0 17 -17 43
-55 80 -37 38 -63 55 -80 55 -14 0 -25 5 -25 10 0 6 -22 10 -50 10 -27 0 -50
-4 -50 -10z m100 -100 c0 -5 7 -10 16 -10 8 0 22 -6 30 -14 8 -8 14 -22 14
-30 0 -9 5 -16 10 -16 6 0 10 -25 10 -55 0 -50 -3 -59 -35 -90 -19 -19 -41
-35 -50 -35 -8 0 -15 -4 -15 -10 0 -5 -13 -10 -30 -10 -16 0 -30 5 -30 10 0 6
-9 10 -20 10 -11 0 -20 5 -20 10 0 6 -9 10 -20 10 -13 0 -20 7 -20 20 0 11 -4
20 -10 20 -6 0 -10 28 -10 65 0 60 3 68 33 100 29 30 38 34 90 34 32 1 57 -3
57 -9z m815 -395 c14 -13 25 -31 25 -40 0 -8 5 -15 10 -15 6 0 10 -25 10 -55
0 -50 -3 -59 -35 -90 -32 -32 -39 -35 -95 -35 -56 0 -63 3 -95 35 -32 32 -35
39 -35 95 0 55 3 64 33 95 30 31 37 34 95 34 54 1 66 -2 87 -24z m-235 -685
c0 -5 11 -10 25 -10 16 0 39 -13 60 -35 32 -32 35 -39 35 -95 0 -51 -4 -65
-25 -85 -13 -14 -31 -25 -40 -25 -8 0 -15 -4 -15 -10 0 -5 -25 -10 -55 -10
-50 0 -59 3 -90 35 -32 32 -35 39 -35 95 0 56 3 63 35 95 21 22 44 35 60 35
14 0 25 5 25 10 0 6 5 10 10 10 6 0 10 -4 10 -10z m480 -740 c0 -5 11 -10 25
-10 29 0 75 -40 75 -65 0 -8 5 -15 10 -15 6 0 10 -18 10 -40 0 -22 -4 -40 -10
-40 -5 0 -10 -7 -10 -15 0 -9 -16 -31 -35 -50 -30 -31 -41 -35 -85 -35 -44 0
-55 4 -85 35 -19 19 -35 41 -35 50 0 8 -4 15 -10 15 -5 0 -10 14 -10 30 0 17
5 30 10 30 6 0 10 11 10 25 0 14 11 37 25 50 13 14 36 25 50 25 14 0 25 5 25
10 0 6 9 10 20 10 11 0 20 -4 20 -10z"/>
<path d="M13900 14310 c0 -5 -9 -10 -20 -10 -11 0 -20 -4 -20 -10 0 -5 -7 -10
-15 -10 -9 0 -27 -11 -40 -25 -14 -13 -25 -31 -25 -40 0 -8 -4 -15 -10 -15 -5
0 -10 -9 -10 -20 0 -11 -4 -20 -10 -20 -6 0 -10 -30 -10 -70 0 -40 4 -70 10
-70 6 0 10 -8 10 -18 0 -10 9 -24 20 -32 11 -8 20 -22 20 -32 0 -11 7 -18 18
-18 10 0 24 -9 32 -20 8 -12 26 -20 42 -20 15 0 28 -4 28 -10 0 -5 16 -10 36
-10 42 0 64 -19 64 -54 0 -14 5 -26 10 -26 6 0 10 -17 10 -38 0 -26 -6 -42
-20 -52 -11 -8 -20 -21 -20 -30 0 -9 -9 -22 -20 -30 -14 -10 -20 -26 -20 -52
0 -21 -4 -38 -10 -38 -5 0 -10 -13 -10 -30 0 -16 5 -30 10 -30 6 0 10 -22 10
-50 0 -41 -3 -50 -18 -50 -10 0 -24 -9 -32 -20 -8 -11 -21 -20 -30 -20 -9 0
-22 -9 -30 -20 -8 -11 -21 -20 -28 -20 -8 0 -27 -13 -42 -30 -33 -35 -69 -39
-90 -10 -8 11 -22 20 -32 20 -10 0 -18 5 -18 10 0 6 -37 10 -90 10 -53 0 -90
-4 -90 -10 0 -5 -7 -10 -15 -10 -25 0 -105 -86 -105 -113 0 -12 -9 -29 -20
-37 -21 -15 -28 -70 -10 -70 6 0 10 -9 10 -20 0 -11 5 -20 10 -20 6 0 10 -11
10 -25 0 -29 79 -115 105 -115 8 0 15 -4 15 -10 0 -5 18 -10 40 -10 22 0 40
-4 40 -10 0 -5 14 -10 30 -10 17 0 30 5 30 10 0 6 14 10 30 10 17 0 30 5 30
10 0 6 7 10 15 10 26 0 85 66 85 95 0 14 5 25 10 25 6 0 10 37 10 90 0 80 2
90 18 90 10 0 24 9 32 20 8 11 22 20 32 20 10 0 18 5 18 10 0 6 9 10 20 10 11
0 20 5 20 10 0 6 8 10 18 10 10 0 24 9 32 20 8 11 22 20 32 20 10 0 18 5 18
10 0 6 9 10 20 10 11 0 20 -4 20 -10 0 -5 14 -10 30 -10 17 0 30 -4 30 -10 0
-6 27 -10 60 -10 33 0 60 4 60 10 0 6 11 10 25 10 29 0 115 79 115 105 0 8 5
15 10 15 6 0 10 14 10 30 0 17 5 30 10 30 6 0 10 18 10 40 0 22 -4 40 -10 40
-5 0 -10 11 -10 25 0 28 -99 135 -125 135 -8 0 -15 5 -15 10 0 6 -12 10 -26
10 -29 0 -54 21 -54 44 0 9 -4 16 -10 16 -5 0 -10 9 -10 20 0 11 -4 20 -10 20
-5 0 -10 13 -10 29 0 16 -6 31 -12 34 -9 3 -6 11 10 24 12 11 22 28 22 37 0 9
5 16 10 16 6 0 10 9 10 20 0 11 5 20 10 20 6 0 10 33 10 80 0 47 -4 80 -10 80
-5 0 -10 7 -10 15 0 9 -20 36 -45 60 -24 25 -51 45 -60 45 -8 0 -15 5 -15 10
0 6 -33 10 -80 10 -47 0 -80 -4 -80 -10z m165 -125 c21 -20 35 -44 35 -59 0
-13 6 -27 13 -30 10 -5 10 -7 0 -12 -7 -3 -13 -17 -13 -30 0 -28 -41 -74 -65
-74 -8 0 -15 -4 -15 -10 0 -5 -22 -10 -50 -10 -27 0 -50 5 -50 10 0 6 -7 10
-16 10 -8 0 -22 6 -30 14 -8 8 -14 22 -14 30 0 9 -4 16 -10 16 -5 0 -10 25
-10 55 0 49 4 60 33 90 30 31 37 34 95 34 59 1 65 -1 97 -34z m175 -555 c0 -5
7 -10 16 -10 8 0 22 -6 30 -14 8 -8 14 -22 14 -30 0 -9 5 -16 10 -16 6 0 10
-18 10 -40 0 -22 -4 -40 -10 -40 -5 0 -10 -7 -10 -15 0 -9 -16 -31 -35 -50
-31 -32 -40 -35 -90 -35 -30 0 -55 5 -55 10 0 6 -9 10 -20 10 -13 0 -20 7 -20
18 0 10 -9 24 -20 32 -15 11 -20 26 -20 62 0 26 5 48 10 48 6 0 10 7 10 16 0
8 6 22 14 30 8 8 22 14 30 14 9 0 16 5 16 10 0 6 27 10 60 10 33 0 60 -4 60
-10z m-620 -440 c0 -5 9 -10 20 -10 13 0 20 -7 20 -20 0 -11 5 -20 10 -20 6 0
10 -13 10 -29 0 -16 6 -32 13 -35 10 -5 10 -7 0 -12 -7 -3 -13 -17 -13 -30 0
-28 -41 -74 -65 -74 -8 0 -15 -4 -15 -10 0 -5 -22 -10 -50 -10 -27 0 -50 5
-50 10 0 6 -7 10 -16 10 -8 0 -22 6 -30 14 -8 8 -14 22 -14 30 0 9 -4 16 -10
16 -5 0 -10 25 -10 55 0 49 4 60 33 90 30 32 36 34 100 34 38 1 67 -3 67 -9z"/>
<path d="M11360 12510 c0 -5 -18 -10 -40 -10 -22 0 -40 -4 -40 -10 0 -5 -9
-10 -20 -10 -11 0 -20 -4 -20 -10 0 -5 -7 -10 -16 -10 -19 0 -44 -24 -44 -42
0 -8 -9 -20 -20 -28 -18 -13 -20 -26 -20 -110 0 -84 2 -97 20 -110 11 -8 20
-20 20 -28 0 -18 46 -62 65 -62 8 0 15 -4 15 -10 0 -5 14 -10 30 -10 17 0 30
-4 30 -10 0 -14 78 -12 82 2 6 16 58 -35 58 -57 0 -8 5 -15 10 -15 6 0 10 -8
10 -18 0 -10 9 -24 20 -32 11 -8 20 -22 20 -32 0 -10 5 -18 10 -18 6 0 10 -9
10 -20 0 -11 5 -20 10 -20 6 0 10 -8 10 -18 0 -10 9 -24 20 -32 12 -8 20 -26
20 -42 0 -15 5 -28 10 -28 6 0 10 -9 10 -20 0 -11 -4 -20 -10 -20 -5 0 -10 -8
-10 -18 0 -10 -9 -24 -20 -32 -15 -11 -20 -26 -20 -62 0 -26 -4 -48 -10 -48
-5 0 -10 -9 -10 -20 0 -11 5 -20 10 -20 6 0 10 -13 10 -30 0 -16 5 -30 10 -30
22 0 9 -53 -20 -80 -16 -15 -30 -34 -30 -42 0 -7 -9 -20 -20 -28 -11 -8 -20
-21 -20 -28 0 -8 -13 -27 -30 -42 -16 -15 -30 -33 -30 -40 0 -7 -13 -25 -30
-40 -16 -15 -30 -35 -30 -44 0 -9 -8 -16 -20 -16 -11 0 -20 5 -20 10 0 6 -13
10 -30 10 -16 0 -30 5 -30 10 0 6 -27 10 -60 10 -33 0 -60 -4 -60 -10 0 -5 -9
-10 -20 -10 -11 0 -20 -4 -20 -10 0 -5 -7 -10 -15 -10 -20 0 -85 -65 -85 -85
0 -8 -4 -15 -10 -15 -6 0 -10 -37 -10 -90 0 -53 4 -90 10 -90 6 0 10 -7 10
-15 0 -20 85 -105 105 -105 8 0 15 -4 15 -10 0 -6 33 -10 80 -10 47 0 80 4 80
10 0 6 9 10 20 10 11 0 20 5 20 10 0 6 7 10 16 10 9 0 30 15 47 33 19 20 32
27 34 20 3 -7 18 -13 34 -13 16 0 29 -4 29 -10 0 -5 14 -10 30 -10 17 0 30 -4
30 -10 0 -5 14 -10 30 -10 17 0 30 -4 30 -10 0 -5 14 -10 30 -10 17 0 30 -4
30 -10 0 -5 14 -10 30 -10 17 0 30 -4 30 -10 0 -5 14 -10 30 -10 17 0 30 -4
30 -10 0 -5 12 -10 26 -10 40 0 54 -22 54 -84 0 -31 5 -56 10 -56 6 0 10 -7
10 -15 0 -20 85 -105 105 -105 8 0 15 -4 15 -10 0 -6 36 -10 88 -10 76 0 89 3
102 20 8 11 20 20 28 20 18 0 62 46 62 65 0 8 5 15 10 15 6 0 10 9 10 20 0 11
5 20 10 20 6 0 10 9 10 19 0 11 6 22 13 25 10 5 10 7 0 12 -7 3 -13 14 -13 25
0 10 -4 19 -10 19 -5 0 -10 16 -10 35 0 30 -9 45 -55 90 -37 38 -63 55 -80 55
-14 0 -25 5 -25 10 0 6 -27 10 -60 10 -33 0 -60 -4 -60 -10 0 -5 -9 -10 -20
-10 -11 0 -20 -4 -20 -10 0 -5 -9 -10 -20 -10 -11 0 -20 -4 -20 -10 0 -5 -13
-10 -30 -10 -16 0 -30 5 -30 10 0 6 -13 10 -30 10 -16 0 -30 5 -30 10 0 6 -13
10 -30 10 -16 0 -30 5 -30 10 0 6 -18 10 -40 10 -22 0 -40 5 -40 10 0 6 -13
10 -30 10 -16 0 -30 5 -30 10 0 6 -18 10 -40 10 -22 0 -40 5 -40 10 0 6 -13
10 -30 10 -16 0 -30 5 -30 10 0 6 -9 10 -20 10 -16 0 -20 7 -20 30 0 17 -4 30
-10 30 -5 0 -10 9 -10 20 0 11 5 20 10 20 6 0 10 8 10 18 0 10 9 24 20 32 11
8 20 21 20 30 0 9 9 22 20 30 11 8 20 21 20 30 0 9 9 22 20 30 11 8 20 21 20
30 0 9 9 22 20 30 11 8 20 21 20 30 0 9 9 22 20 30 11 8 20 20 20 28 0 20 32
50 38 34 2 -7 21 -12 43 -12 21 0 39 -4 39 -10 0 -5 9 -10 20 -10 11 0 20 5
20 10 0 6 18 10 40 10 22 0 40 5 40 10 0 6 7 10 15 10 20 0 85 65 85 85 0 8 5
15 10 15 6 0 10 14 10 30 0 17 5 30 10 30 6 0 10 18 10 40 0 22 -4 40 -10 40
-5 0 -10 14 -10 30 0 17 -4 30 -10 30 -5 0 -10 7 -10 15 0 20 -65 85 -85 85
-8 0 -15 5 -15 10 0 6 -18 10 -40 10 -22 0 -40 5 -40 10 0 6 -9 10 -20 10 -13
0 -20 7 -20 18 0 10 -9 24 -20 32 -11 8 -20 21 -20 30 0 9 -9 22 -20 30 -11 8
-20 21 -20 30 0 9 -9 22 -20 30 -11 8 -20 21 -20 30 0 9 -9 22 -20 30 -11 8
-20 22 -20 32 0 10 -4 18 -10 18 -5 0 -10 8 -10 18 0 10 -9 24 -20 32 -21 15
-28 50 -10 50 6 0 10 9 10 20 0 11 5 20 10 20 6 0 10 9 10 20 0 11 5 20 10 20
6 0 10 23 10 50 0 28 -4 50 -10 50 -5 0 -10 14 -10 30 0 17 -4 30 -10 30 -5 0
-10 7 -10 15 0 9 -16 31 -35 50 -19 19 -41 35 -50 35 -8 0 -15 5 -15 10 0 6
-18 10 -40 10 -22 0 -40 5 -40 10 0 6 -4 10 -10 10 -5 0 -10 -4 -10 -10z m40
-100 c0 -5 7 -10 15 -10 9 0 27 -11 40 -25 14 -13 25 -31 25 -40 0 -8 5 -15
10 -15 6 0 10 -20 10 -45 0 -39 -5 -51 -35 -80 -19 -19 -41 -35 -50 -35 -8 0
-15 -4 -15 -10 0 -5 -18 -10 -40 -10 -22 0 -40 5 -40 10 0 6 -7 10 -15 10 -25
0 -65 46 -65 75 0 14 -4 25 -10 25 -5 0 -10 9 -10 20 0 11 5 20 10 20 6 0 10
11 10 25 0 29 40 75 65 75 8 0 15 5 15 10 0 6 18 10 40 10 22 0 40 -4 40 -10z
m420 -760 c0 -5 7 -10 15 -10 9 0 27 -11 40 -25 14 -13 25 -31 25 -40 0 -8 5
-15 10 -15 6 0 10 -18 10 -40 0 -22 -4 -40 -10 -40 -5 0 -10 -7 -10 -15 0 -9
-11 -27 -25 -40 -13 -14 -31 -25 -40 -25 -8 0 -15 -4 -15 -10 0 -5 -20 -10
-45 -10 -39 0 -51 5 -80 35 -22 21 -35 44 -35 60 0 14 -4 25 -10 25 -5 0 -10
9 -10 20 0 11 5 20 10 20 6 0 10 11 10 25 0 29 40 75 65 75 8 0 15 5 15 10 0
6 18 10 40 10 22 0 40 -4 40 -10z m-550 -670 c8 -11 22 -20 32 -20 11 0 18 -7
18 -20 0 -11 5 -20 10 -20 6 0 10 -22 10 -50 0 -27 -4 -50 -10 -50 -5 0 -10
-7 -10 -15 0 -29 -47 -65 -84 -65 -19 0 -37 -6 -40 -12 -5 -10 -7 -10 -12 0
-3 6 -14 12 -25 12 -10 0 -19 5 -19 10 0 6 -9 10 -20 10 -13 0 -20 7 -20 20 0
11 -4 20 -10 20 -5 0 -10 9 -10 20 0 11 -4 20 -10 20 -5 0 -10 14 -10 30 0 17
5 30 10 30 6 0 10 7 10 15 0 9 15 31 33 50 29 30 38 34 87 34 45 1 58 -3 70
-19z m870 -310 c0 -5 7 -10 16 -10 8 0 22 -6 30 -14 8 -8 14 -22 14 -30 0 -9
5 -16 10 -16 6 0 10 -22 10 -50 0 -27 -4 -50 -10 -50 -5 0 -10 -7 -10 -15 0
-25 -46 -65 -75 -65 -14 0 -25 -4 -25 -10 0 -5 -9 -10 -20 -10 -11 0 -20 5
-20 10 0 6 -12 10 -26 10 -29 0 -54 21 -54 44 0 9 -4 16 -10 16 -5 0 -10 9
-10 20 0 11 -4 20 -10 20 -5 0 -10 14 -10 30 0 17 5 30 10 30 6 0 10 7 10 15
0 9 15 31 33 50 29 30 38 34 90 34 32 1 57 -3 57 -9z"/>
<path d="M13360 12490 c0 -5 -11 -10 -25 -10 -29 0 -115 -79 -115 -105 0 -8
-4 -15 -10 -15 -5 0 -10 -9 -10 -20 0 -11 -4 -20 -10 -20 -5 0 -10 -18 -10
-40 0 -22 -4 -40 -10 -40 -5 0 -10 -4 -10 -10 0 -5 9 -10 20 -10 13 0 20 -7
20 -20 0 -11 5 -20 10 -20 6 0 10 -7 10 -15 0 -26 86 -105 115 -105 14 0 25
-4 25 -10 0 -5 21 -10 46 -10 47 0 74 -16 74 -44 0 -9 5 -16 10 -16 6 0 10 -9
10 -20 0 -11 5 -20 10 -20 6 0 10 -13 10 -30 0 -16 5 -30 10 -30 6 0 10 -9 10
-20 0 -11 5 -20 10 -20 6 0 10 -13 10 -30 0 -16 5 -30 10 -30 6 0 10 -9 10
-20 0 -11 5 -20 10 -20 6 0 10 -9 10 -20 0 -11 5 -20 10 -20 6 0 10 -13 10
-30 0 -16 5 -30 10 -30 20 0 9 -33 -20 -60 -16 -15 -30 -35 -30 -44 0 -9 -4
-16 -10 -16 -6 0 -10 -37 -10 -90 0 -53 4 -90 10 -90 6 0 10 -7 10 -15 0 -18
-44 -65 -60 -65 -6 0 -33 -22 -60 -50 -27 -27 -55 -50 -62 -50 -8 0 -20 -9
-28 -20 -15 -21 -70 -28 -70 -10 0 6 -9 10 -20 10 -11 0 -20 5 -20 10 0 6 -13
10 -30 10 -16 0 -30 5 -30 10 0 6 -18 10 -40 10 -22 0 -40 -4 -40 -10 0 -5
-13 -10 -30 -10 -16 0 -30 -4 -30 -10 0 -5 -7 -10 -15 -10 -9 0 -31 -16 -50
-35 -19 -19 -35 -41 -35 -50 0 -8 -4 -15 -10 -15 -5 0 -10 -18 -10 -39 0 -22
-6 -42 -12 -45 -10 -5 -10 -7 0 -12 7 -3 12 -25 12 -55 0 -27 5 -49 10 -49 6
0 10 -7 10 -15 0 -20 45 -65 65 -65 8 0 15 -4 15 -10 0 -5 9 -10 20 -10 11 0
20 -4 20 -10 0 -6 37 -10 90 -10 53 0 90 4 90 10 0 6 7 10 15 10 20 0 85 65
85 85 0 8 5 15 10 15 6 0 10 14 10 30 0 17 5 30 10 30 6 0 10 18 10 40 0 22
-4 40 -10 40 -5 0 -10 18 -10 40 0 32 4 40 18 40 10 0 24 9 32 20 8 11 21 20
30 20 9 0 22 9 30 20 8 11 21 20 30 20 9 0 22 9 30 20 8 11 21 20 30 20 9 0
22 9 30 20 10 14 26 20 52 20 21 0 38 -4 38 -10 0 -6 33 -10 80 -10 47 0 80 4
80 10 0 6 8 10 18 10 10 0 24 9 32 20 8 11 22 20 32 20 11 0 18 7 18 18 0 10
9 24 20 32 12 8 20 26 20 42 0 15 5 28 10 28 6 0 10 18 10 40 0 22 -4 40 -10
40 -5 0 -10 14 -10 30 0 17 -4 30 -10 30 -5 0 -10 7 -10 15 0 20 -85 105 -105
105 -8 0 -15 5 -15 10 0 6 -18 10 -40 10 -33 0 -40 3 -40 20 0 11 -4 20 -10
20 -5 0 -10 9 -10 20 0 11 -4 20 -10 20 -5 0 -10 9 -10 20 0 11 -4 20 -10 20
-5 0 -10 9 -10 20 0 11 -4 20 -10 20 -5 0 -10 9 -10 20 0 11 -4 20 -10 20 -5
0 -10 9 -10 20 0 11 -4 20 -10 20 -5 0 -10 14 -10 30 0 17 -4 30 -10 30 -5 0
-10 9 -10 20 0 11 -4 20 -10 20 -5 0 -10 9 -10 20 0 11 -4 20 -10 20 -5 0 -10
9 -10 19 0 11 -6 22 -12 25 -10 5 -10 7 0 12 6 3 12 13 12 23 0 9 9 23 20 31
12 8 20 26 20 42 0 15 5 28 10 28 6 0 10 23 10 50 0 28 -4 50 -10 50 -5 0 -10
13 -10 28 0 16 -8 34 -20 42 -11 8 -20 20 -20 28 0 18 -25 42 -44 42 -9 0 -16
5 -16 10 0 6 -9 10 -20 10 -11 0 -20 5 -20 10 0 6 -30 10 -70 10 -40 0 -70 -4
-70 -10z m120 -100 c0 -5 7 -10 16 -10 8 0 22 -6 30 -14 8 -8 14 -22 14 -30 0
-9 5 -16 10 -16 6 0 10 -22 10 -50 0 -27 -4 -50 -10 -50 -5 0 -10 -7 -10 -16
0 -8 -6 -22 -14 -30 -8 -8 -22 -14 -30 -14 -9 0 -16 -4 -16 -10 0 -6 -26 -10
-58 -10 -46 0 -60 4 -72 20 -8 11 -22 20 -32 20 -13 0 -18 8 -18 30 0 17 -4
30 -10 30 -5 0 -10 9 -10 20 0 11 5 20 10 20 6 0 10 11 10 25 0 15 13 40 33
60 29 30 38 34 90 34 32 1 57 -3 57 -9z m360 -840 c0 -5 7 -10 16 -10 8 0 22
-6 30 -14 8 -8 14 -22 14 -30 0 -9 5 -16 10 -16 6 0 10 -22 10 -50 0 -27 -4
-50 -10 -50 -5 0 -10 -7 -10 -16 0 -8 -6 -22 -14 -30 -8 -8 -22 -14 -30 -14
-9 0 -16 -4 -16 -10 0 -6 -27 -10 -60 -10 -33 0 -60 4 -60 10 0 6 -9 10 -20
10 -13 0 -20 7 -20 20 0 11 -4 20 -10 20 -5 0 -10 9 -10 20 0 11 -4 20 -10 20
-5 0 -10 14 -10 30 0 17 5 30 10 30 6 0 10 9 10 20 0 11 5 20 10 20 6 0 10 9
10 20 0 13 7 20 20 20 11 0 20 5 20 10 0 6 27 10 60 10 33 0 60 -4 60 -10z
m-640 -480 c0 -5 7 -10 15 -10 9 0 27 -11 40 -25 14 -13 25 -31 25 -40 0 -8 5
-15 10 -15 6 0 10 -18 10 -40 0 -22 -4 -40 -10 -40 -5 0 -10 -7 -10 -15 0 -9
-11 -27 -25 -40 -13 -14 -31 -25 -40 -25 -8 0 -15 -4 -15 -10 0 -5 -18 -10
-40 -10 -22 0 -40 5 -40 10 0 6 -7 10 -15 10 -9 0 -27 11 -40 25 -14 13 -25
31 -25 40 0 8 -4 15 -10 15 -5 0 -10 18 -10 40 0 22 5 40 10 40 6 0 10 7 10
15 0 9 11 27 25 40 13 14 31 25 40 25 8 0 15 5 15 10 0 6 18 10 40 10 22 0 40
-4 40 -10z"/>
</g>
</svg>
