<svg id="katman_1" data-name="katman 1" xmlns="http://www.w3.org/2000/svg" viewBox="0 0 1150 1150"><defs><style>.cls-1,.cls-2{fill:#44a329;stroke:#44a329;}.cls-1,.cls-2,.cls-3,.cls-4{stroke-miterlimit:10;}.cls-2{stroke-width:0.25px;}.cls-3{fill:#2048db;}.cls-3,.cls-4{stroke:#2048db;}.cls-4{fill:none;}</style></defs><path class="cls-1" d="M617,103.68q-11-17.94-23-35.16a0,0,0,0,1,0,0c-.53-.8-1.07-1.58-1.63-2.35a19.63,19.63,0,0,0-30.29,0c-.56.77-1.1,1.55-1.63,2.35,0,0,0,0,0,0q-12.77,18.3-24.4,37.39a721.94,721.94,0,0,0-36,66.73c-2.26,4.76-4.47,9.52-6.64,14.34v0a731.27,731.27,0,0,0-11,569.4.15.15,0,0,1,0,.09c.36.86.69,1.76,1.08,2.62,0,0,0,.06,0,.09a20.05,20.05,0,0,0,33.55,4.1,2,2,0,0,0,.39-.53c.36-.51.71-1,1-1.49,0,0,0,0,0,0,8-11.39,15.62-23.14,22.67-35.25A490.61,490.61,0,0,0,574.75,302.5c-.09-.3-.21-.63-.33-.92,0,0,0-.06-.06-.09A6.77,6.77,0,0,0,568.2,298c-3.69,0-6.1,3-6.69,6.69a5.75,5.75,0,0,0,.2,2.77,474.23,474.23,0,0,1-11.27,368.11.1.1,0,0,1,0,.06,12.68,12.68,0,0,1-2,4.35.1.1,0,0,1,0,.06,13.93,13.93,0,0,1-24.61-3.49c-.11-.29-.2-.62-.29-1A660.39,660.39,0,0,1,537,253.89c2.12-5.68,4.35-11.34,6.61-17q9.49-23.25,20.67-45.58a9.64,9.64,0,0,1,.51-1.07,12.34,12.34,0,0,1,21.72,0c.17.36.35.72.5,1.07.66,1.28,1.31,2.59,1.94,3.9s1.3,2.59,1.9,3.9a4.86,4.86,0,0,1,.24.53c1.19,2.44,2.35,4.91,3.51,7.35.47,1,.95,2,1.4,3.07l.62,1.34s0,.05,0,.08c.57,1.16,1.13,2.35,1.64,3.54.21.48.41,1,.62,1.43,1.28,2.83,2.5,5.66,3.75,8.51.68,1.61,1.37,3.21,2.05,4.85.48,1.07.92,2.17,1.37,3.24.06.18.12.33.18.48s.15.36.24.53.15.3.21.45l.09.27a1.8,1.8,0,0,0,.08.21c.87,2.08,1.7,4.16,2.53,6.24.12.3.24.63.36.93,1.16,2.88,2.29,5.8,3.39,8.68,4.4,11.63,8.54,23.42,12.32,35.34q1.42,4.47,2.76,9c.9,3,1.79,6,2.65,9q2.5,8.75,4.73,17.59c.39,1.45.75,2.91,1.1,4.4s.81,3.21,1.19,4.82c.06.21.09.38.15.59q2.15,9,4,18c1.31,6.22,2.53,12.5,3.63,18.77.29,1.7.59,3.36.86,5.06.06.39.15.77.21,1.16.12.62.21,1.22.3,1.81,0,.21.06.39.11.6.06.42.12.86.21,1.31.12.62.21,1.25.3,1.9.21,1.25.42,2.5.6,3.78,0,.24.08.51.11.77.18,1.31.39,2.59.6,3.93l.18,1.1a1,1,0,0,0,0,.3c.18,1.19.32,2.41.5,3.6,0,.06,0,.15,0,.21s0,.12,0,.18,0,.17,0,.26v0a1,1,0,0,1,0,.3.93.93,0,0,0,0,.27c.06.33.09.65.15,1s.12.86.18,1.31c.15,1.16.3,2.35.45,3.51.26,2,.5,3.93.74,5.89l.18,1.52c.27,2.29.53,4.58.74,6.87.06.36.09.74.12,1.1.06.57.12,1.13.15,1.67.09.71.15,1.39.21,2.11,0,.18,0,.33.06.47.09.72.15,1.46.21,2.21.05.56.11,1.13.17,1.69,0,.15,0,.27,0,.39,0,.44.09.86.12,1.28l.45,5.5c.12,1.37.21,2.71.33,4.08,0,.53.06,1.07.11,1.6.09,1.37.18,2.74.27,4.14l.27,4v.18q.27,4.25.45,8.48c0,.39,0,.77.06,1.16s0,.63,0,.92c.11,2.86.23,5.72.32,8.57V465c.09,2.85.15,5.74.21,8.6.06,3.68.09,7.37.09,11.09a654.54,654.54,0,0,1-80.32,315.14,657.53,657.53,0,0,1-39.72,63.66,658.81,658.81,0,0,1-138.66,143.9c-.86.71-1.75,1.37-2.62,2s-1.87,1.46-2.82,2.14-1.7,1.28-2.56,1.91a32.39,32.39,0,0,1-18.89,4,44.28,44.28,0,0,1-19.13-6.45c-2.32-1.7-4.58-3.46-6.87-5.21a657,657,0,0,1-70-62.35q-6.61-6.71-12.94-13.63A655.08,655.08,0,0,1,87.75,484.71c0-4,0-8.09.12-12.14A44.24,44.24,0,0,0,82.57,452c-9.9-18.92-34.62-25.32-52.83-14.16a40.86,40.86,0,0,0-19,26.8v.06a35.67,35.67,0,0,0-.3,12.53v.08c0,3.46-.06,6.94-.06,10.39A725.88,725.88,0,0,0,174.5,948.18q6.51,8,13.36,15.88a729.68,729.68,0,0,0,112.12,105q19.5,14.85,40,28.26s.06.06.09.06a37.63,37.63,0,0,0,8.54,5.5s.06.06.09.06a36.93,36.93,0,0,0,17.17,3.48,41.15,41.15,0,0,0,19.57-5.89c.24-.12.45-.27.68-.41.54-.33,1.08-.69,1.61-1.05l.18-.12q24.9-15.93,48.37-33.79A732.87,732.87,0,0,0,577.13,924.05q21.29-28.11,39.83-58.31a725.21,725.21,0,0,0,107.42-381A725.23,725.23,0,0,0,617,103.68Z"/><path class="cls-2" d="M1140.75,475l-.14-7.23v-.05s-.06-2.36-.12-3.52a39.12,39.12,0,0,0-77.2,3.93v.09l.24,16.45c0,212-100.33,400.51-256.07,520.72l-.05,0a42.6,42.6,0,0,1-7.08,5.42.77.77,0,0,1-.17.12,42,42,0,0,1-19.25,6.21,36.3,36.3,0,0,1-26-9.1s-.06-.06-.09-.06a656.07,656.07,0,0,1-85.56-77.94,34.82,34.82,0,0,0-6.87-7.56,33.78,33.78,0,0,0-44.09,51.14l.12.12a732.42,732.42,0,0,0,98.32,90.47q20.92,16,43,30.4a3.56,3.56,0,0,0,.41.3.41.41,0,0,1,.12.09c1.73,1.13,3.42,2.2,5.15,3.33a48.88,48.88,0,0,0,21.51,5.09c8.95.23,16.78-1.55,23-5a.27.27,0,0,1,.15-.09l3.51-2.32q19.41-12.81,37.93-26.86c175.82-133.07,289.4-344,289.4-581.51Z"/><path class="cls-3" d="M646.05,470.47a8.38,8.38,0,1,0,4.74,10.86A8.39,8.39,0,0,0,646.05,470.47Zm-4.7,12.07a4.68,4.68,0,1,1,6.06-2.65A4.67,4.67,0,0,1,641.35,482.54Z"/><path class="cls-3" d="M643.51,501.46a8.37,8.37,0,1,0,4.74,10.85A8.37,8.37,0,0,0,643.51,501.46Zm-4.7,12.06a4.67,4.67,0,1,1,6.06-2.64A4.68,4.68,0,0,1,638.81,513.52Z"/><path class="cls-3" d="M621.65,508a8.36,8.36,0,1,0,4.06,3.37A8.39,8.39,0,0,0,621.65,508ZM617,520a4.68,4.68,0,1,1,6-2.65A4.68,4.68,0,0,1,617,520Z"/><polygon class="cls-3" points="632.08 508.99 632.89 512.85 626.83 514.25 625.71 511.32 632.08 508.99"/><polygon class="cls-3" points="639.59 500.93 640.47 486.28 645.32 486.31 645.17 502.34 639.59 500.93"/><path class="cls-3" d="M524.07,404.63a8.76,8.76,0,1,0,5.49.57A8.76,8.76,0,0,0,524.07,404.63ZM527,417.84a4.89,4.89,0,1,1,3.72-5.82A4.88,4.88,0,0,1,527,417.84Z"/><path class="cls-3" d="M556,412a8.75,8.75,0,1,0,5.48.56A8.76,8.76,0,0,0,556,412Zm3,13.21a4.89,4.89,0,1,1,3.72-5.83A4.89,4.89,0,0,1,559,425.23Z"/><path class="cls-3" d="M555.59,439.68a8.73,8.73,0,1,0,5.48.56A8.66,8.66,0,0,0,555.59,439.68Zm2.94,13.21a4.89,4.89,0,1,1,3.72-5.83A4.9,4.9,0,0,1,558.53,452.89Z"/><path class="cls-3" d="M579.17,462.71a8.77,8.77,0,1,0,5.48.57A8.75,8.75,0,0,0,579.17,462.71Zm3,13.21a4.89,4.89,0,1,1,3.72-5.82A4.89,4.89,0,0,1,582.12,475.92Z"/><polygon class="cls-3" points="562.29 455.54 573.7 466.52 578.15 463 565.44 451.87 562.29 455.54"/><polygon class="cls-3" points="559.57 439.73 560.39 428.99 556.49 429.21 556.75 439.42 559.57 439.73"/><polygon class="cls-3" points="533.89 416.9 548.93 420.48 551.19 414.96 534.75 412.36 533.89 416.9"/><path class="cls-3" d="M539.06,295.27a8.74,8.74,0,1,0,5.23,1.73A8.76,8.76,0,0,0,539.06,295.27Zm0,13.54a4.89,4.89,0,1,1,4.88-4.89A4.89,4.89,0,0,1,539.09,308.81Z"/><path class="cls-3" d="M554.85,323.47a8.75,8.75,0,1,0,5.23,1.73A8.76,8.76,0,0,0,554.85,323.47Zm0,13.54a4.89,4.89,0,1,1,4.89-4.89A4.89,4.89,0,0,1,554.88,337Z"/><path class="cls-3" d="M533,347.91a8.77,8.77,0,1,0,5.23,1.74A8.76,8.76,0,0,0,533,347.91Zm0,13.54a4.89,4.89,0,1,1,4.89-4.89A4.89,4.89,0,0,1,533.07,361.45Z"/><path class="cls-3" d="M566.13,360.32a8.78,8.78,0,0,0-8.76,8.76,8.76,8.76,0,1,0,8.76-8.76Zm0,13.54a4.89,4.89,0,1,1,4.89-4.89A4.89,4.89,0,0,1,566.16,373.86Z"/><polygon class="cls-3" points="541.8 356.67 560.38 362.48 557.43 368.08 540.25 361.64 541.8 356.67"/><polygon class="cls-3" points="541.19 353.47 550.31 339.72 547.51 337.01 538.27 349.65 541.19 353.47"/><polygon class="cls-3" points="548.92 325.78 541.53 312.43 545.64 309.79 554.85 323.47 548.92 325.78"/><path class="cls-3" d="M620.87,556.46a8.75,8.75,0,1,0,5.23,1.73A8.71,8.71,0,0,0,620.87,556.46Zm0,13.53a4.89,4.89,0,1,1,4.89-4.89A4.89,4.89,0,0,1,620.9,570Z"/><path class="cls-3" d="M628.77,578.64a8.76,8.76,0,1,0,5.23,1.74A8.69,8.69,0,0,0,628.77,578.64Zm0,13.54a4.89,4.89,0,1,1,4.88-4.89A4.89,4.89,0,0,1,628.8,592.18Z"/><path class="cls-3" d="M604.7,594.81a8.75,8.75,0,1,0,5.23,1.73A8.77,8.77,0,0,0,604.7,594.81Zm0,13.54a4.89,4.89,0,1,1,4.89-4.89A4.89,4.89,0,0,1,604.73,608.35Z"/><polygon class="cls-3" points="623.3 594.24 612.97 600.69 611.34 597.86 620.87 591.19 623.3 594.24"/><polygon class="cls-3" points="623.91 580.11 622.17 573.88 626.55 571.88 629.91 578.72 623.91 580.11"/><path class="cls-3" d="M622.38,345.14a8.77,8.77,0,1,0,5.23,1.74A8.74,8.74,0,0,0,622.38,345.14Zm0,13.54a4.89,4.89,0,1,1,4.89-4.89A4.89,4.89,0,0,1,622.41,358.68Z"/><path class="cls-3" d="M635.54,376.73a8.75,8.75,0,1,0,5.23,1.73A8.73,8.73,0,0,0,635.54,376.73Zm0,13.53a4.89,4.89,0,1,1,4.89-4.88A4.88,4.88,0,0,1,635.57,390.26Z"/><path class="cls-3" d="M613.73,393.65a8.75,8.75,0,1,0,5.23,1.73A8.69,8.69,0,0,0,613.73,393.65Zm0,13.54a4.89,4.89,0,1,1,4.89-4.89A4.89,4.89,0,0,1,613.76,407.19Z"/><polygon class="cls-3" points="627.75 389.48 619.89 396.18 621.94 399.34 630.45 392.61 627.75 389.48"/><polygon class="cls-3" points="630.45 378.36 623.76 362.55 628.19 360.45 636.14 376.75 630.45 378.36"/><circle class="cls-4" cx="522.74" cy="516.43" r="4.89"/><path class="cls-3" d="M521,508a8.76,8.76,0,1,0,10.33,6.84A8.76,8.76,0,0,0,521,508Zm2.72,13.26a4.89,4.89,0,1,1,3.82-5.76A4.88,4.88,0,0,1,523.71,521.22Z"/><circle class="cls-4" cx="522.74" cy="516.43" r="4.89"/><circle class="cls-4" cx="548.2" cy="537.14" r="4.89"/><path class="cls-3" d="M546.45,528.67a8.76,8.76,0,1,0,10.33,6.85A8.75,8.75,0,0,0,546.45,528.67Zm2.72,13.26a4.89,4.89,0,1,1,3.82-5.76A4.88,4.88,0,0,1,549.17,541.93Z"/><circle class="cls-4" cx="548.2" cy="537.14" r="4.89"/><circle class="cls-4" cx="534.48" cy="573.94" r="4.89"/><path class="cls-3" d="M532.74,565.46a8.76,8.76,0,1,0,10.32,6.85A8.77,8.77,0,0,0,532.74,565.46Zm2.71,13.27a4.89,4.89,0,1,1,3.82-5.76A4.9,4.9,0,0,1,535.45,578.73Z"/><circle class="cls-4" cx="534.48" cy="573.94" r="4.89"/><circle class="cls-4" cx="567.85" cy="578.83" r="4.89"/><path class="cls-3" d="M566.11,570.36a8.76,8.76,0,1,0,10.32,6.85A8.76,8.76,0,0,0,566.11,570.36Zm2.71,13.26a4.89,4.89,0,1,1,3.82-5.76A4.88,4.88,0,0,1,568.82,583.62Z"/><circle class="cls-4" cx="567.85" cy="578.83" r="4.89"/><polygon class="cls-3" points="528.09 523.47 540.39 533.27 544.47 529.07 530.97 519.52 528.09 523.47"/><polygon class="cls-3" points="542.86 544.2 534.52 565.29 537.86 565.97 546.57 545.86 542.86 544.2"/><polygon class="cls-3" points="543.06 572.31 560.93 573.57 559.13 579.81 542.61 577.28 543.06 572.31"/></svg>